<?xml version="1.0" encoding="utf-8"?>
<!-- Generator: Adobe Illustrator 23.0.3, SVG Export Plug-In . SVG Version: 6.00 Build 0)  -->
<svg version="1.1" id="Layer_1" xmlns="http://www.w3.org/2000/svg" xmlns:xlink="http://www.w3.org/1999/xlink" x="0px" y="0px"
	 width="100px" height="100px" viewBox="0 0 100 100" style="enable-background:new 0 0 100 100;" xml:space="preserve">
<style type="text/css">
	.st0{opacity:0;fill:#FFFFFF;}
</style>
<path d="M83.5,47h-7.9C74.2,35.3,64.8,26,53,24.6v-8.1c0-1.6-1.3-3-3-3c-1.6,0-3,1.3-3,3v8.1C35.1,25.9,25.6,35.2,24.1,47h-7.6
	c-1.6,0-3,1.3-3,3s1.3,3,3,3h7.6C25.4,64.9,35,74.4,47,75.8v7.7c0,1.6,1.3,3,3,3c1.6,0,3-1.3,3-3v-7.8C64.9,74.3,74.4,64.9,75.7,53
	h7.8c1.6,0,3-1.3,3-3S85.1,47,83.5,47z M53,69.7v-9.8c0-1.6-1.3-3-3-3c-1.6,0-3,1.3-3,3v9.9c-8.7-1.3-15.6-8.1-16.9-16.8h10
	c1.6,0,3-1.3,3-3c0-1.6-1.3-3-3-3h-9.9c1.4-8.5,8.2-15.2,16.9-16.4v9.5c0,1.6,1.3,3,3,3c1.6,0,3-1.3,3-3v-9.5
	c8.5,1.3,15.3,8,16.6,16.4h-9.7c-1.6,0-3,1.3-3,3c0,1.6,1.3,3,3,3h9.8C68.4,61.6,61.6,68.4,53,69.7z"/>
<rect class="st0" width="100" height="100"/>
</svg>
